<svg xmlns="http://www.w3.org/2000/svg" xmlns:xlink="http://www.w3.org/1999/xlink" width="400" height="400" viewBox="0 0 400 400">
<rect data-name="background" width="100%" height="100%" fill="none"/><g data-name="icon" fill="#feb43f" data="id:7152461" transform="translate(24.930494942340818,141.63888461378147) scale(1.1672219069905312)">
    
 <path d="m68.328 75.641c2.5312-10.734-1.3906-22.875-10.953-29.609-4.5312-3.2031-8.5625-6.8906-12.141-11.016-2.7031-3.0625-5.1562-6.375-7.375-9.9062-0.95312-7.8281-5.6719-7.9688-5.6719-7.9688-3.3125 3.4688-1.1406 8.25-1.1406 8.25l0.015625 0.03125c-12.422 0.51562-15.562 11.797-15.562 11.797 7.1094 4.7969 13.453 3.9062 16.781 2.8594l-0.3125 0.125c-6.1406 3.2031-5.5938 9.4531-5.4844 10.297-4.2969 0.17188-7.875 2.1719-9.6875 3.3906-0.79688 0.53125-1.2812 1.4219-1.2812 2.375 0 1.625 1.3125 2.8438 2.8594 2.8438 0.1875 0 0.35938-0.015625 0.54688-0.046875 6.0781-1.0938 8.875 0.85938 8.875 0.85938l3.7969 2.4375c2.2188-2.2031 4.8594-3.6719 7.6562-4.2188 4.7656-0.92188 9.4375 0.625 13.141 4.3594 0.60938 0.60938 0.60938 1.6094-0.015625 2.2188-0.60938 0.60938-1.5938 0.59375-2.2031-0.015625-2.9375-2.9688-6.6094-4.2031-10.328-3.4844-2.7188 0.51562-5.2656 2.2031-7.2812 4.75-0.03125 0.015625-0.0625 0.046875-0.046875 0.0625-0.6875 1.2656-1.2031 2.6562-1.4531 4.125-0.67188 3.9375 0.34375 7.625 2.4062 10.422h-5.7344c-3.4844 0-6.3125 2.8281-6.3125 6.3125v1.5625h30.594c0.32812 0 0.65625-0.015625 0.98438-0.046875 0.15625 0 0.29688 0 0.45312-0.015625 7.1406-0.60938 13.203-5.6875 14.875-12.75z"/>
 <path d="m78.828 43.234c-2.0156-2.6875-4.4688-5.4531-7.4375-8.2969-6.3125-6.0312-9.4531-14.672-8.75-23.391 0 0-14.891 5.375-14.891 18.672 0 1.5 0.20312 3.0938 0.60938 4.7969 3.5781 4.125 7.6094 7.8125 12.141 11.016 9.5625 6.7344 13.484 18.875 10.953 29.609-1.5156 6.3906-6.6094 11.156-12.859 12.438v0.20312c21.719-1.7812 33.688-27.109 20.234-45.047z"/>

    </g><g data-name="business_name" fill="#2d2d2d" data="id:10" transform="translate(144.95955839462653,131.0986537265262) scale(1.8378801583577238)"><path d="M11.16,48.44q-3.56,0-5.58-1.4t-2.82-3.82t-0.8-5.58l0-11.56q0-3.32,0.8-5.76t2.82-3.76t5.58-1.32q3.36,0,5.26,1.14t2.7,3.26t0.8,4.92l0,2.72l-5.68,0l0-2.8q0-1.36-0.14-2.48t-0.76-1.78t-2.14-0.66t-2.22,0.7t-0.9,1.88t-0.2,2.66l0,14.08q0,1.76,0.28,2.9t1.02,1.72t2.02,0.58q1.48,0,2.1-0.7t0.78-1.86t0.16-2.6l0-2.92l5.68,0l0,2.6q0,2.88-0.76,5.1t-2.66,3.48t-5.34,1.26z M28.16,48.36q-1.56,0-2.68-0.82t-1.72-2.08t-0.6-2.62q0-2.16,0.8-3.64t2.12-2.48t3-1.74t3.4-1.34l0-2q0-1-0.14-1.68t-0.52-1.04t-1.18-0.36q-0.68,0-1.1,0.32t-0.6,0.9t-0.22,1.34l-0.08,1.4l-5.16-0.2q0.12-4,1.98-5.9t5.66-1.9q3.48,0,5.06,1.92t1.58,5.2l0,10.68q0,1.28,0.06,2.32t0.16,1.88t0.18,1.48l-4.88,0q-0.12-0.8-0.3-1.82t-0.26-1.5q-0.4,1.4-1.52,2.54t-3.04,1.14z M30.16,44.32q0.52,0,0.98-0.26t0.82-0.62t0.52-0.64l0-6.44q-0.88,0.52-1.66,1.04t-1.36,1.14t-0.88,1.34t-0.3,1.68q0,1.28,0.5,2.02t1.38,0.74z M48.04,48.36q-2.92,0-4.8-1.56t-2.68-4.56l4.04-1.56q0.48,1.88,1.28,2.88t2.08,1q0.96,0,1.44-0.48t0.48-1.32q0-0.96-0.58-1.74t-1.98-1.94l-2.8-2.36q-1.52-1.32-2.46-2.7t-0.94-3.46q0-1.88,0.86-3.22t2.36-2.08t3.34-0.74q2.8,0,4.5,1.66t2.18,4.34l-3.56,1.52q-0.2-0.96-0.58-1.78t-0.98-1.34t-1.4-0.52q-0.84,0-1.34,0.52t-0.5,1.32q0,0.68,0.58,1.4t1.66,1.64l2.84,2.56q0.92,0.8,1.76,1.72t1.4,2.06t0.56,2.62q0,2-0.9,3.36t-2.44,2.06t-3.42,0.7z M57.84,48l0-32.4l5.44,0l0,11.48q1.2-1.2,2.62-1.88t3.1-0.68q1.4,0,2.24,0.7t1.24,1.86t0.4,2.52l0,18.4l-5.44,0l0-17.32q0-1.04-0.32-1.6t-1.24-0.56q-0.56,0-1.26,0.32t-1.34,0.84l0,18.32l-5.44,0z M83.88,48.36q-2.6,0-4.24-0.98t-2.42-2.88t-0.78-4.58l0-6.96q0-2.76,0.78-4.64t2.44-2.84t4.22-0.96q2.76,0,4.3,1.04t2.2,3.02t0.66,4.82l0,3.28l-9.2,0l0,4.56q0,1.12,0.22,1.84t0.7,1.04t1.16,0.32q0.72,0,1.16-0.34t0.64-1t0.2-1.66l0-1.92l5.08,0l0,1.56q0,3.52-1.76,5.4t-5.36,1.88z M81.84,34l4.08,0l0-2.2q0-1.2-0.2-1.94t-0.64-1.08t-1.24-0.34q-0.72,0-1.16,0.36t-0.64,1.2t-0.2,2.4l0,1.6z M97.16,48l-3.56-23.12l4.52,0l2.04,15l2.4-15l4.04,0l2.28,15.16l2.2-15.16l4.28,0l-3.64,23.12l-4.6,0l-2.56-14.6l-2.68,14.6l-4.72,0z"/></g><g data-name="slogan" fill="#d38301" data="id:308" transform="translate(147.454967878433,223.51330340498518) scale(0.35936210899622956)"><path d="M31.36,20.32l0,27.68l-3.64,0l0-20.64l-9.2,20.64l-2.56,0l-9.24-20.68l0,20.68l-3.64,0l0-27.68l3.92,0l10.24,22.88l10.24-22.88l3.88,0z M37.52,31.06q1.36-2.54,3.74-3.94t5.3-1.4q2.88,0,5,1.24t3.16,3.12l0-4l3.68,0l0,21.92l-3.68,0l0-4.08q-1.08,1.92-3.22,3.18t-4.98,1.26q-2.92,0-5.28-1.44t-3.72-4.04t-1.36-5.92q0-3.36,1.36-5.9z M53.72,32.68q-1-1.84-2.7-2.82t-3.74-0.98t-3.72,0.96t-2.68,2.8t-1,4.32q0,2.52,1,4.38t2.68,2.84t3.72,0.98t3.74-0.98t2.7-2.84t1-4.34t-1-4.32z M76.8,48l-8.6-9.68l0,9.68l-3.64,0l0-29.6l3.64,0l0,17.4l8.44-9.72l5.08,0l-10.32,10.92l10.36,11l-4.96,0z M105.04,38.4l-17.52,0q0.2,3.24,2.22,5.06t4.9,1.82q2.36,0,3.94-1.1t2.22-2.94l3.92,0q-0.88,3.16-3.52,5.14t-6.56,1.98q-3.12,0-5.58-1.4t-3.86-3.98t-1.4-5.98t1.36-5.96t3.82-3.94t5.66-1.38q3.12,0,5.52,1.36t3.7,3.74t1.3,5.38q0,1.04-0.12,2.2z M100.48,31.86q-0.92-1.5-2.5-2.28t-3.5-0.78q-2.76,0-4.7,1.76t-2.22,4.88l13.84,0q0-2.08-0.92-3.58z  M140.16,20.12l-9.08,17.36l0,10.52l-3.64,0l0-10.52l-9.12-17.36l4.04,0l6.88,14.12l6.88-14.12l4.04,0z M147.98,46.96q-2.5-1.4-3.92-3.98t-1.42-5.98q0-3.36,1.46-5.94t3.98-3.96t5.64-1.38t5.64,1.38t3.98,3.94t1.46,5.96t-1.5,5.98t-4.06,3.98t-5.68,1.4q-3.08,0-5.58-1.4z M157.24,44.24q1.72-0.92,2.78-2.76t1.06-4.48t-1.04-4.48t-2.72-2.74t-3.64-0.9q-2,0-3.66,0.9t-2.66,2.74t-1,4.48q0,2.68,0.98,4.52t2.62,2.74t3.6,0.9t3.68-0.92z M189.04,26.08l0,21.92l-3.64,0l0-3.24q-1.04,1.68-2.9,2.62t-4.1,0.94q-2.56,0-4.6-1.06t-3.22-3.18t-1.18-5.16l0-12.84l3.6,0l0,12.36q0,3.24,1.64,4.98t4.48,1.74q2.92,0,4.6-1.8t1.68-5.24l0-12.04l3.64,0z M201.58,26.72q1.78-1.04,4.34-1.04l0,3.76l-0.96,0q-6.12,0-6.12,6.64l0,11.92l-3.64,0l0-21.92l3.64,0l0,3.56q0.96-1.88,2.74-2.92z  M237.38,21.82q3.34,1.7,5.12,4.86t1.78,7.44t-1.78,7.42t-5.12,4.8t-7.9,1.66l-8.68,0l0-27.88l8.68,0q4.56,0,7.9,1.7z M237.72,42.14q2.84-2.86,2.84-8.02q0-5.2-2.86-8.12t-8.22-2.92l-5.04,0l0,21.92l5.04,0q5.4,0,8.24-2.86z M255.46,26.72q1.78-1.04,4.34-1.04l0,3.76l-0.96,0q-6.12,0-6.12,6.64l0,11.92l-3.64,0l0-21.92l3.64,0l0,3.56q0.96-1.88,2.74-2.92z M283.88,38.4l-17.52,0q0.2,3.24,2.22,5.06t4.9,1.82q2.36,0,3.94-1.1t2.22-2.94l3.92,0q-0.88,3.16-3.52,5.14t-6.56,1.98q-3.12,0-5.58-1.4t-3.86-3.98t-1.4-5.98t1.36-5.96t3.82-3.94t5.66-1.38q3.12,0,5.52,1.36t3.7,3.74t1.3,5.38q0,1.04-0.12,2.2z M279.32,31.86q-0.92-1.5-2.5-2.28t-3.5-0.78q-2.76,0-4.7,1.76t-2.22,4.88l13.84,0q0-2.08-0.92-3.58z M288.8,31.06q1.36-2.54,3.74-3.94t5.3-1.4q2.88,0,5,1.24t3.16,3.12l0-4l3.68,0l0,21.92l-3.68,0l0-4.08q-1.08,1.92-3.22,3.18t-4.98,1.26q-2.92,0-5.28-1.44t-3.72-4.04t-1.36-5.92q0-3.36,1.36-5.9z M305,32.68q-1-1.84-2.7-2.82t-3.74-0.98t-3.72,0.96t-2.68,2.8t-1,4.32q0,2.52,1,4.38t2.68,2.84t3.72,0.98t3.74-0.98t2.7-2.84t1-4.34t-1-4.32z M346.76,26.74q2,1.06,3.16,3.18t1.16,5.16l0,12.92l-3.6,0l0-12.4q0-3.28-1.62-5.02t-4.38-1.74q-2.84,0-4.52,1.82t-1.68,5.26l0,12.08l-3.6,0l0-12.4q0-3.28-1.62-5.02t-4.38-1.74q-2.84,0-4.52,1.82t-1.68,5.26l0,12.08l-3.64,0l0-21.92l3.64,0l0,3.16q1.08-1.72,2.9-2.64t4.02-0.92q2.76,0,4.88,1.24t3.16,3.64q0.92-2.32,3.04-3.6t4.72-1.28q2.56,0,4.56,1.06z  M368.2,26.7q1.84-3.26,5.02-5.1t7.06-1.84q4.56,0,7.96,2.2t4.96,6.24l-4.36,0q-1.16-2.52-3.34-3.88t-5.22-1.36q-2.92,0-5.24,1.36t-3.64,3.86t-1.32,5.86q0,3.32,1.32,5.82t3.64,3.86t5.24,1.36q3.04,0,5.22-1.34t3.34-3.86l4.36,0q-1.56,4-4.96,6.18t-7.96,2.18q-3.88,0-7.06-1.82t-5.02-5.06t-1.84-7.32t1.84-7.34z M402.58,46.96q-2.5-1.4-3.92-3.98t-1.42-5.98q0-3.36,1.46-5.94t3.98-3.96t5.64-1.38t5.64,1.38t3.98,3.94t1.46,5.96t-1.5,5.98t-4.06,3.98t-5.68,1.4q-3.08,0-5.58-1.4z M411.84,44.24q1.72-0.92,2.78-2.76t1.06-4.48t-1.04-4.48t-2.72-2.74t-3.64-0.9q-2,0-3.66,0.9t-2.66,2.74t-1,4.48q0,2.68,0.98,4.52t2.62,2.74t3.6,0.9t3.68-0.92z M455.12,26.74q2,1.06,3.16,3.18t1.16,5.16l0,12.92l-3.6,0l0-12.4q0-3.28-1.62-5.02t-4.38-1.74q-2.84,0-4.52,1.82t-1.68,5.26l0,12.08l-3.6,0l0-12.4q0-3.28-1.62-5.02t-4.38-1.74q-2.84,0-4.52,1.82t-1.68,5.26l0,12.08l-3.64,0l0-21.92l3.64,0l0,3.16q1.08-1.72,2.9-2.64t4.02-0.92q2.76,0,4.88,1.24t3.16,3.64q0.92-2.32,3.04-3.6t4.72-1.28q2.56,0,4.56,1.06z M485.28,38.4l-17.52,0q0.2,3.24,2.22,5.06t4.9,1.82q2.36,0,3.94-1.1t2.22-2.94l3.92,0q-0.88,3.16-3.52,5.14t-6.56,1.98q-3.12,0-5.58-1.4t-3.86-3.98t-1.4-5.98t1.36-5.96t3.82-3.94t5.66-1.38q3.12,0,5.52,1.36t3.7,3.74t1.3,5.38q0,1.04-0.12,2.2z M480.72,31.86q-0.92-1.5-2.5-2.28t-3.5-0.78q-2.76,0-4.7,1.76t-2.22,4.88l13.84,0q0-2.08-0.92-3.58z  M518.04,20.12l0,2.96l-7.6,0l0,24.92l-3.64,0l0-24.92l-7.64,0l0-2.96l18.88,0z M528.9,26.72q1.78-1.04,4.34-1.04l0,3.76l-0.96,0q-6.12,0-6.12,6.64l0,11.92l-3.64,0l0-21.92l3.64,0l0,3.56q0.96-1.88,2.74-2.92z M556.88,26.08l0,21.92l-3.64,0l0-3.24q-1.04,1.68-2.9,2.62t-4.1,0.94q-2.56,0-4.6-1.06t-3.22-3.18t-1.18-5.16l0-12.84l3.6,0l0,12.36q0,3.24,1.64,4.98t4.48,1.74q2.92,0,4.6-1.8t1.68-5.24l0-12.04l3.64,0z M582.92,38.4l-17.52,0q0.2,3.24,2.22,5.06t4.9,1.82q2.36,0,3.94-1.1t2.22-2.94l3.92,0q-0.88,3.16-3.52,5.14t-6.56,1.98q-3.12,0-5.58-1.4t-3.86-3.98t-1.4-5.98t1.36-5.96t3.82-3.94t5.66-1.38q3.12,0,5.52,1.36t3.7,3.74t1.3,5.38q0,1.04-0.12,2.2z M578.36,31.86q-0.92-1.5-2.5-2.28t-3.5-0.78q-2.76,0-4.7,1.76t-2.22,4.88l13.84,0q0-2.08-0.92-3.58z"/></g></svg>